<svg width="247" height="72" viewBox="0 0 247 72" fill="none" xmlns="http://www.w3.org/2000/svg">
<path d="M94.1378 44.3608C94.1186 48.1385 92.4311 50.1328 89.3629 50.1328C86.4673 50.1328 84.5881 48.3303 84.5306 45.2046H76.2656C76.2273 53.0476 81.8267 56.787 88.9411 56.787C96.8992 56.787 102.326 51.9737 102.345 44.3608V16.9773H94.1378V44.3608Z" fill="url(#paint0_linear)"/>
<path d="M114.809 56.8061C119.162 56.8061 121.981 54.9077 123.419 52.1655H123.649V56.25H131.396V36.3835C131.396 29.3651 125.394 26.412 119.027 26.412C111.779 26.412 107.196 29.787 106.064 35.1563L113.62 35.7699C114.176 33.8139 115.921 32.3757 118.855 32.3757C121.674 32.3757 123.208 33.7564 123.227 36.2301C123.246 38.1669 121.214 38.4546 116.094 38.9531C110.264 39.4901 105.029 41.446 105.029 48.0235C105.029 53.853 109.19 56.8061 114.809 56.8061ZM117.148 51.1683C114.636 51.1683 112.834 49.9986 112.834 47.755C112.834 45.4539 114.732 44.3225 117.608 43.9198C119.392 43.6705 122.307 43.2486 123.285 42.5966V45.7223C123.285 48.8097 120.734 51.1683 117.148 51.1683Z" fill="url(#paint1_linear)"/>
<path d="M162.667 56.25V16.9773H154.498V31.7429H154.248C153.155 29.3459 150.797 26.412 145.868 26.412C139.406 26.412 133.941 31.4361 133.941 41.5611C133.941 51.4176 139.176 56.7294 145.887 56.7294C150.643 56.7294 153.117 53.9872 154.248 51.5327H154.613V56.25H162.667ZM154.67 41.5227C154.67 46.777 152.407 50.2287 148.476 50.2287C144.468 50.2287 142.282 46.662 142.282 41.5227C142.282 36.4219 144.43 32.9127 148.476 32.9127C152.446 32.9127 154.67 36.2685 154.67 41.5227Z" fill="url(#paint2_linear)"/>
<path d="M172.316 56.25H180.945L186.008 37.7259H186.372L191.435 56.25H200.083L208.08 26.7955H199.834L195.347 46.4702H195.097L190.265 26.7955H182.153L177.398 46.5852H177.129L172.565 26.7955H164.3L172.316 56.25Z" fill="url(#paint3_linear)"/>
<path d="M218.136 56.8061C222.489 56.8061 225.308 54.9077 226.747 52.1655H226.977V56.25H234.724V36.3835C234.724 29.3651 228.722 26.412 222.355 26.412C215.107 26.412 210.524 29.787 209.392 35.1563L216.948 35.7699C217.504 33.8139 219.249 32.3757 222.183 32.3757C225.002 32.3757 226.536 33.7564 226.555 36.2301C226.574 38.1669 224.541 38.4546 219.421 38.9531C213.592 39.4901 208.357 41.446 208.357 48.0235C208.357 53.853 212.518 56.8061 218.136 56.8061ZM220.476 51.1683C217.964 51.1683 216.161 49.9986 216.161 47.755C216.161 45.4539 218.06 44.3225 220.936 43.9198C222.72 43.6705 225.634 43.2486 226.612 42.5966V45.7223C226.612 48.8097 224.062 51.1683 220.476 51.1683Z" fill="url(#paint4_linear)"/>
<path d="M246.531 16.9773H238.362V56.25H246.531V16.9773Z" fill="url(#paint5_linear)"/>
<path d="M69 55.2857V45C69 43.636 68.4615 42.3279 67.503 41.3635C66.5445 40.399 65.2444 39.8571 63.8889 39.8571H53.6667V7.71429C53.6667 6.35031 53.1282 5.04221 52.1697 4.07774C51.2111 3.11326 49.9111 2.57143 48.5556 2.57143H47.2778V0H44.7222V2.57143H39.6111V0H37.0556V2.57143H31.9444V0H29.3889V2.57143H24.2778V0H21.7222V2.57143H16.6111V0H14.0556V2.57143H8.94444V0H6.38889V2.57143H5.11111C3.75556 2.57143 2.45553 3.11326 1.49701 4.07774C0.53849 5.04221 0 6.35031 0 7.71429V66.8571C0 68.2211 0.53849 69.5292 1.49701 70.4937C2.45553 71.4582 3.75556 72 5.11111 72H56.2222C57.5778 72 58.8778 71.4582 59.8363 70.4937C60.7948 69.5292 61.3333 68.2211 61.3333 66.8571V56.5714H67.7222C68.0611 56.5714 68.3861 56.436 68.6257 56.1949C68.8654 55.9537 69 55.6267 69 55.2857ZM2.55556 7.71429C2.55556 7.0323 2.8248 6.37825 3.30406 5.89601C3.78332 5.41377 4.43334 5.14286 5.11111 5.14286H6.38889V7.71429H8.94444V5.14286H14.0556V7.71429H16.6111V5.14286H21.7222V7.71429H24.2778V5.14286H29.3889V7.71429H31.9444V5.14286H37.0556V7.71429H39.6111V5.14286H44.7222V7.71429H47.2778V5.14286H48.5556C49.2333 5.14286 49.8833 5.41377 50.3626 5.89601C50.8419 6.37825 51.1111 7.0323 51.1111 7.71429V10.2857H2.55556V7.71429ZM5.11111 69.4286C4.43334 69.4286 3.78332 69.1577 3.30406 68.6754C2.8248 68.1932 2.55556 67.5391 2.55556 66.8571V12.8571H51.1111V66.8571C51.1097 67.7603 51.3465 68.6476 51.7973 69.4286H5.11111ZM58.7778 45V66.8571C58.7778 67.5391 58.5085 68.1932 58.0293 68.6754C57.55 69.1577 56.9 69.4286 56.2222 69.4286C55.5444 69.4286 54.8944 69.1577 54.4152 68.6754C53.9359 68.1932 53.6667 67.5391 53.6667 66.8571V42.4286H59.4882C59.0283 43.2069 58.7831 44.0945 58.7778 45ZM66.4444 54H61.3333V45C61.3333 44.318 61.6026 43.664 62.0818 43.1817C62.5611 42.6995 63.2111 42.4286 63.8889 42.4286C64.5667 42.4286 65.2167 42.6995 65.6959 43.1817C66.1752 43.664 66.4444 44.318 66.4444 45V54Z" fill="url(#paint6_linear)"/>
<path d="M46 16.7144H7.66669C7.3278 16.7144 7.00279 16.8499 6.76316 17.091C6.52353 17.3321 6.38891 17.6592 6.38891 18.0002V48.8573C6.38891 49.1983 6.52353 49.5253 6.76316 49.7664C7.00279 50.0075 7.3278 50.143 7.66669 50.143H46C46.3389 50.143 46.6639 50.0075 46.9035 49.7664C47.1432 49.5253 47.2778 49.1983 47.2778 48.8573V18.0002C47.2778 17.6592 47.1432 17.3321 46.9035 17.091C46.6639 16.8499 46.3389 16.7144 46 16.7144ZM14.0556 47.5716H8.94446V42.4287H14.0556V47.5716ZM14.0556 39.8573H8.94446V34.7144H14.0556V39.8573ZM14.0556 32.143H8.94446V27.0002H14.0556V32.143ZM14.0556 24.4287H8.94446V19.2859H14.0556V24.4287ZM21.7222 47.5716H16.6111V42.4287H21.7222V47.5716ZM21.7222 39.8573H16.6111V34.7144H21.7222V39.8573ZM21.7222 32.143H16.6111V27.0002H21.7222V32.143ZM21.7222 24.4287H16.6111V19.2859H21.7222V24.4287ZM29.3889 47.5716H24.2778V42.4287H29.3889V47.5716ZM29.3889 39.8573H24.2778V34.7144H29.3889V39.8573ZM29.3889 32.143H24.2778V27.0002H29.3889V32.143ZM29.3889 24.4287H24.2778V19.2859H29.3889V24.4287ZM37.0556 47.5716H31.9445V42.4287H37.0556V47.5716ZM37.0556 39.8573H31.9445V34.7144H37.0556V39.8573ZM37.0556 32.143H31.9445V27.0002H37.0556V32.143ZM37.0556 24.4287H31.9445V19.2859H37.0556V24.4287ZM44.7222 47.5716H39.6111V42.4287H44.7222V47.5716ZM44.7222 39.8573H39.6111V34.7144H44.7222V39.8573ZM44.7222 32.143H39.6111V27.0002H44.7222V32.143ZM44.7222 24.4287H39.6111V19.2859H44.7222V24.4287Z" fill="url(#paint7_linear)"/>
<path d="M17.8889 52.7141H15.3333V55.2856H17.8889V52.7141Z" fill="url(#paint8_linear)"/>
<path d="M40.8889 52.7141H20.4444V55.2856H40.8889V52.7141Z" fill="url(#paint9_linear)"/>
<path d="M40.8889 57.8571H12.7778V60.4286H40.8889V57.8571Z" fill="url(#paint10_linear)"/>
<path d="M35.7778 62.9997H12.7778V65.5711H35.7778V62.9997Z" fill="url(#paint11_linear)"/>
<defs>
<linearGradient id="paint0_linear" x1="250.5" y1="68.9999" x2="75" y2="4.49994" gradientUnits="userSpaceOnUse">
<stop stop-color="#1E3C72"/>
<stop offset="1" stop-color="#2A5298"/>
</linearGradient>
<linearGradient id="paint1_linear" x1="250.5" y1="68.9999" x2="75" y2="4.49994" gradientUnits="userSpaceOnUse">
<stop stop-color="#1E3C72"/>
<stop offset="1" stop-color="#2A5298"/>
</linearGradient>
<linearGradient id="paint2_linear" x1="250.5" y1="68.9999" x2="75" y2="4.49994" gradientUnits="userSpaceOnUse">
<stop stop-color="#1E3C72"/>
<stop offset="1" stop-color="#2A5298"/>
</linearGradient>
<linearGradient id="paint3_linear" x1="250.5" y1="68.9999" x2="75" y2="4.49994" gradientUnits="userSpaceOnUse">
<stop stop-color="#1E3C72"/>
<stop offset="1" stop-color="#2A5298"/>
</linearGradient>
<linearGradient id="paint4_linear" x1="250.5" y1="68.9999" x2="75" y2="4.49994" gradientUnits="userSpaceOnUse">
<stop stop-color="#1E3C72"/>
<stop offset="1" stop-color="#2A5298"/>
</linearGradient>
<linearGradient id="paint5_linear" x1="250.5" y1="68.9999" x2="75" y2="4.49994" gradientUnits="userSpaceOnUse">
<stop stop-color="#1E3C72"/>
<stop offset="1" stop-color="#2A5298"/>
</linearGradient>
<linearGradient id="paint6_linear" x1="0" y1="0" x2="69.3151" y2="71.5711" gradientUnits="userSpaceOnUse">
<stop stop-color="#FF9A44"/>
<stop offset="1" stop-color="#FC6076"/>
</linearGradient>
<linearGradient id="paint7_linear" x1="0" y1="0" x2="69.3151" y2="71.5711" gradientUnits="userSpaceOnUse">
<stop stop-color="#FF9A44"/>
<stop offset="1" stop-color="#FC6076"/>
</linearGradient>
<linearGradient id="paint8_linear" x1="0" y1="0" x2="69.3151" y2="71.5711" gradientUnits="userSpaceOnUse">
<stop stop-color="#FF9A44"/>
<stop offset="1" stop-color="#FC6076"/>
</linearGradient>
<linearGradient id="paint9_linear" x1="0" y1="0" x2="69.3151" y2="71.5711" gradientUnits="userSpaceOnUse">
<stop stop-color="#FF9A44"/>
<stop offset="1" stop-color="#FC6076"/>
</linearGradient>
<linearGradient id="paint10_linear" x1="0" y1="0" x2="69.3151" y2="71.5711" gradientUnits="userSpaceOnUse">
<stop stop-color="#FF9A44"/>
<stop offset="1" stop-color="#FC6076"/>
</linearGradient>
<linearGradient id="paint11_linear" x1="0" y1="0" x2="69.3151" y2="71.5711" gradientUnits="userSpaceOnUse">
<stop stop-color="#FF9A44"/>
<stop offset="1" stop-color="#FC6076"/>
</linearGradient>
</defs>
</svg>
