<?xml version="1.0" standalone="no"?>
<!DOCTYPE svg PUBLIC "-//W3C//DTD SVG 20010904//EN"
 "http://www.w3.org/TR/2001/REC-SVG-20010904/DTD/svg10.dtd">
<svg version="1.0" xmlns="http://www.w3.org/2000/svg"
 width="512.000000pt" height="512.000000pt" viewBox="0 0 512.000000 512.000000"
 preserveAspectRatio="xMidYMid meet">
<metadata>
Created by potrace 1.11, written by Peter Selinger 2001-2013
</metadata>
<g transform="translate(0.000000,512.000000) scale(0.100000,-0.100000)"
fill="#000000" stroke="none">
<path d="M1220 4411 l0 -68 -72 -5 c-114 -8 -196 -61 -242 -158 l-21 -45 -3
-1625 c-2 -1416 0 -1631 13 -1675 17 -62 79 -136 139 -168 l41 -22 1440 0
c1385 0 1441 1 1475 19 49 26 108 84 133 131 21 38 22 54 25 353 l3 312 180 0
c178 0 180 0 204 25 l25 24 0 303 c0 175 -4 318 -10 340 -17 59 -71 130 -124
163 l-49 30 -316 5 -316 5 -5 895 c-4 644 -8 902 -17 920 -24 52 -74 110 -119
136 -37 22 -63 28 -125 32 l-79 5 0 68 0 69 -65 0 -65 0 0 -70 0 -70 -140 0
-140 0 0 70 0 70 -65 0 -65 0 0 -70 0 -70 -140 0 -140 0 0 70 0 70 -65 0 -65
0 0 -70 0 -70 -140 0 -140 0 0 70 0 70 -65 0 -65 0 0 -70 0 -70 -140 0 -140 0
0 70 0 70 -65 0 -65 0 0 -70 0 -70 -135 0 -135 0 0 70 0 70 -70 0 -70 0 0 -69z
m0 -271 l0 -70 70 0 70 0 0 70 0 70 135 0 135 0 0 -70 0 -70 65 0 64 0 3 68 3
67 138 3 137 3 0 -71 0 -70 65 0 64 0 3 68 3 67 138 3 137 3 0 -71 0 -70 65 0
65 0 0 70 0 70 140 0 140 0 0 -70 0 -70 65 0 65 0 0 70 0 71 138 -3 137 -3 3
-67 3 -68 64 0 65 0 0 70 0 70 43 0 c23 0 61 -9 85 -20 59 -27 81 -78 82 -182
l0 -78 -1301 0 -1301 0 4 88 c3 55 11 99 21 119 22 42 79 72 140 73 l47 0 0
-70z m2063 -348 l327 -3 0 -1468 c0 -1291 2 -1473 15 -1505 l15 -36 -1276 2
-1276 3 -32 36 -33 35 -6 850 c-9 1106 -9 2079 0 2088 6 6 1448 5 2266 -2z
m767 -1576 c0 -2 -7 -20 -15 -39 -13 -31 -15 -127 -15 -644 0 -335 -5 -626
-10 -648 -6 -25 -22 -52 -44 -73 -30 -27 -43 -32 -83 -32 -52 0 -92 21 -121
61 -16 22 -17 83 -20 702 l-3 677 156 0 c85 0 155 -2 155 -4z m290 -12 c23
-10 48 -29 60 -49 19 -30 20 -49 20 -294 l0 -261 -135 0 -136 0 3 264 c3 249
4 266 24 293 22 30 78 63 106 63 10 0 36 -7 58 -16z"/>
<path d="M1245 3565 l-25 -24 0 -846 c0 -832 0 -845 20 -865 20 -20 33 -20
1074 -20 l1055 0 15 22 c14 20 16 119 16 869 l0 848 -26 20 c-27 21 -30 21
-1066 21 l-1039 0 -24 -25z m385 -250 l0 -135 -135 0 -135 0 0 135 0 135 135
0 135 0 0 -135z m410 0 l0 -135 -140 0 -140 0 0 135 0 135 140 0 140 0 0 -135z
m410 0 l0 -135 -140 0 -140 0 0 135 0 135 140 0 140 0 0 -135z m410 0 l0 -135
-140 0 -140 0 0 135 0 135 140 0 140 0 0 -135z m410 0 l0 -135 -140 0 -140 0
0 135 0 135 140 0 140 0 0 -135z m-1640 -415 l0 -140 -135 0 -135 0 0 140 0
140 135 0 135 0 0 -140z m410 6 l0 -134 -132 -4 c-73 -2 -136 -3 -140 -1 -5 3
-8 65 -8 139 l0 134 140 0 140 0 0 -134z m410 -1 l0 -135 -140 0 -140 0 0 135
0 135 140 0 140 0 0 -135z m410 0 l0 -135 -140 0 -140 0 0 135 0 135 140 0
140 0 0 -135z m410 0 l0 -135 -140 0 -140 0 0 135 0 135 140 0 140 0 0 -135z
m-1640 -415 l0 -140 -135 0 -135 0 0 140 0 140 135 0 135 0 0 -140z m410 0 l0
-140 -135 0 -135 0 0 140 0 140 135 0 135 0 0 -140z m410 0 l0 -141 -137 3
-138 3 -3 138 -3 137 141 0 140 0 0 -140z m408 3 l-3 -138 -135 0 -135 0 -3
138 -3 137 141 0 141 0 -3 -137z m410 0 l-3 -138 -137 -3 -138 -3 0 141 0 140
140 0 141 0 -3 -137z m-1638 -413 l0 -140 -135 0 -135 0 0 140 0 140 135 0
135 0 0 -140z m410 0 l0 -140 -135 0 -135 0 0 140 0 140 135 0 135 0 0 -140z
m410 0 l0 -141 -137 3 -138 3 -3 124 c-1 69 0 131 2 138 4 10 39 13 141 13
l135 0 0 -140z m410 0 l0 -140 -140 0 -140 0 0 140 0 140 140 0 140 0 0 -140z
m405 0 l0 -135 -137 -3 -138 -3 0 141 0 141 138 -3 137 -3 0 -135z"/>
<path d="M1700 1600 l0 -70 65 0 65 0 0 70 0 70 -65 0 -65 0 0 -70z"/>
<path d="M1970 1600 l0 -70 545 0 545 0 0 70 0 70 -545 0 -545 0 0 -70z"/>
<path d="M1560 1325 l0 -65 750 0 750 0 0 65 0 65 -750 0 -750 0 0 -65z"/>
<path d="M1560 1050 l0 -70 615 0 615 0 0 70 0 70 -615 0 -615 0 0 -70z"/>
</g>
</svg>
